<svg width="30" height="30" viewBox="0 0 513 513" fill="none" xmlns="http://www.w3.org/2000/svg">
<g clip-path="url(#clip0_36_240)">
<path d="M476.797 95.1942L181.992 389.978C180.01 391.968 177.655 393.547 175.061 394.624C172.467 395.702 169.686 396.256 166.877 396.256C164.069 396.256 161.288 395.702 158.694 394.624C156.1 393.547 153.745 391.968 151.763 389.978L37.7575 275.866C35.7754 273.876 33.4199 272.297 30.8262 271.22C28.2324 270.143 25.4514 269.588 22.6428 269.588C19.8342 269.588 17.0532 270.143 14.4595 271.22C11.8657 272.297 9.51024 273.876 7.52817 275.866C5.53827 277.848 3.95933 280.204 2.88196 282.798C1.8046 285.391 1.25 288.172 1.25 290.981C1.25 293.789 1.8046 296.57 2.88196 299.164C3.95933 301.758 5.53827 304.113 7.52817 306.096L121.576 420.122C133.607 432.131 149.911 438.875 166.909 438.875C183.908 438.875 200.212 432.131 212.243 420.122L507.027 125.402C509.013 123.421 510.59 121.066 511.665 118.475C512.741 115.883 513.294 113.104 513.294 110.298C513.294 107.492 512.741 104.714 511.665 102.122C510.59 99.53 509.013 97.1759 507.027 95.1942C505.045 93.2043 502.689 91.6254 500.095 90.548C497.502 89.4706 494.721 88.916 491.912 88.916C489.104 88.916 486.323 89.4706 483.729 90.548C481.135 91.6254 478.78 93.2043 476.797 95.1942Z" fill="#000000"/>
</g>
<defs>
<clipPath id="clip0_36_240">
<rect width="512" height="512" fill="white" transform="translate(0.667969 0.666016)"/>
</clipPath>
</defs>
</svg>
