<svg width="30" height="30" viewBox="0 0 513 513" fill="none" xmlns="http://www.w3.org/2000/svg">
<g clip-path="url(#clip0_36_399)">
<path d="M256.671 213.999C239.794 213.999 223.296 219.003 209.263 228.38C195.23 237.756 184.292 251.084 177.834 266.676C171.375 282.269 169.685 299.426 172.978 315.98C176.27 332.533 184.397 347.738 196.331 359.672C208.266 371.606 223.471 379.733 240.024 383.025C256.577 386.318 273.734 384.628 289.327 378.17C304.92 371.711 318.247 360.773 327.623 346.74C337 332.707 342.005 316.209 342.005 299.332C342.005 276.7 333.014 254.995 317.011 238.992C301.008 222.989 279.303 213.999 256.671 213.999ZM256.671 341.998C248.233 341.998 239.983 339.496 232.967 334.808C225.95 330.12 220.482 323.456 217.252 315.66C214.023 307.863 213.178 299.285 214.824 291.008C216.471 282.731 220.534 275.129 226.501 269.162C232.468 263.195 240.071 259.131 248.347 257.485C256.624 255.839 265.203 256.684 272.999 259.913C280.795 263.142 287.459 268.611 292.147 275.628C296.836 282.644 299.338 290.893 299.338 299.332C299.338 310.648 294.843 321.5 286.841 329.502C278.84 337.503 267.987 341.998 256.671 341.998Z" fill="#000000"/>
<path d="M481.434 88.6044L424.73 31.9004C414.85 21.9664 403.097 14.0909 390.152 8.72988C377.207 3.36887 363.328 0.628831 349.317 0.668391H107.333C79.0533 0.702265 51.9419 11.9512 31.9454 31.9478C11.9488 51.9443 0.69989 79.0557 0.666016 107.335L0.666016 406.002C0.69989 434.281 11.9488 461.393 31.9454 481.389C51.9419 501.386 79.0533 512.635 107.333 512.668H405.999C434.279 512.635 461.39 501.386 481.387 481.389C501.383 461.393 512.632 434.281 512.666 406.002V164.018C512.706 150.007 509.966 136.127 504.604 123.182C499.243 110.238 491.368 98.4848 481.434 88.6044ZM363.333 45.0417V64.6684C363.333 81.6423 356.59 97.9209 344.587 109.923C332.585 121.926 316.307 128.668 299.333 128.668H213.999C197.025 128.668 180.747 121.926 168.745 109.923C156.742 97.9209 149.999 81.6423 149.999 64.6684V43.3351H349.317C354.038 43.3769 358.739 43.9494 363.333 45.0417ZM469.999 406.002C469.999 422.976 463.257 439.254 451.254 451.257C439.252 463.259 422.973 470.002 405.999 470.002H107.333C90.3588 470.002 74.0802 463.259 62.0778 451.257C50.0755 439.254 43.3327 422.976 43.3327 406.002V107.335C43.3327 90.3612 50.0755 74.0826 62.0778 62.0802C74.0802 50.0779 90.3588 43.3351 107.333 43.3351V64.6684C107.367 92.9478 118.615 120.059 138.612 140.056C158.609 160.052 185.72 171.301 213.999 171.335H299.333C326.159 171.252 351.965 161.045 371.591 142.756C391.217 124.467 403.216 99.4437 405.189 72.6897L451.269 118.77C463.225 130.799 469.955 147.058 469.999 164.018V406.002Z" fill="#000000"/>
</g>
<defs>
<clipPath id="clip0_36_399">
<rect width="512" height="512" fill="white" transform="translate(0.666016 0.668945)"/>
</clipPath>
</defs>
</svg>
